<?xml version="1.0" encoding="UTF-8" standalone="no"?><!DOCTYPE svg PUBLIC "-//W3C//DTD SVG 1.1//EN" "http://www.w3.org/Graphics/SVG/1.1/DTD/svg11.dtd"><svg width="100%" height="100%" viewBox="0 0 1000 1000" version="1.1" xmlns="http://www.w3.org/2000/svg" xmlns:xlink="http://www.w3.org/1999/xlink" xml:space="preserve" xmlns:serif="http://www.serif.com/" style="fill-rule:evenodd;clip-rule:evenodd;stroke-linecap:round;stroke-linejoin:round;stroke-miterlimit:1.5;"><g id="logo-libo-square-white"><rect x="0" y="0" width="1000" height="1000" style="fill:none;"/><g><path d="M634.673,387.426c41.394,0 75,33.607 75,75c0,41.394 -33.606,75 -75,75c-41.394,0 -75,-33.606 -75,-75c0,-41.393 33.606,-75 75,-75Zm4.56,35.33c25.959,0 47.034,21.075 47.034,47.034c0,25.959 -21.075,47.035 -47.034,47.035c-25.959,0 -47.035,-21.076 -47.035,-47.035c0,-25.959 21.076,-47.034 47.035,-47.034Z" style="fill:#fff;"/><circle cx="612.476" cy="437.424" r="29.396" style="fill:#fff;"/><path d="M654.673,337.099c80.208,0 145.327,65.119 145.327,145.327c0,80.208 -65.119,145.327 -145.327,145.327c-80.208,0 -145.327,-65.119 -145.327,-145.327c0,-80.208 65.119,-145.327 145.327,-145.327Zm0,29.066c64.167,0 116.262,52.095 116.262,116.261c0,64.167 -52.095,116.262 -116.262,116.262c-64.166,0 -116.261,-52.095 -116.261,-116.262c0,-64.166 52.095,-116.261 116.261,-116.261Z" style="fill:#fff;"/></g><g><path d="M365.327,387.426c41.394,0 75,33.607 75,75c0,41.394 -33.606,75 -75,75c-41.394,0 -75,-33.606 -75,-75c0,-41.393 33.606,-75 75,-75Zm4.559,35.33c25.959,0 47.035,21.075 47.035,47.034c0,25.959 -21.076,47.035 -47.035,47.035c-25.959,0 -47.034,-21.076 -47.034,-47.035c0,-25.959 21.075,-47.034 47.034,-47.034Z" style="fill:#fff;"/><circle cx="343.13" cy="437.424" r="29.396" style="fill:#fff;"/><path d="M345.327,337.099c80.208,0 145.327,65.119 145.327,145.327c0,80.208 -65.119,145.327 -145.327,145.327c-80.208,0 -145.327,-65.119 -145.327,-145.327c0,-80.208 65.119,-145.327 145.327,-145.327Zm0,28.412c64.527,0 116.916,52.388 116.916,116.915c0,64.528 -52.389,116.916 -116.916,116.916c-64.528,0 -116.916,-52.388 -116.916,-116.916c0,-64.527 52.388,-116.915 116.916,-116.915Z" style="fill:#fff;"/></g><path d="M213.648,148.874l0,333.552" style="fill:none;stroke:#fff;stroke-width:27px;"/><path d="M655.711,687.135l0,163.991" style="fill:none;stroke:#fff;stroke-width:25px;"/></g></svg>