<?xml version="1.0" encoding="UTF-8" standalone="no"?><!DOCTYPE svg PUBLIC "-//W3C//DTD SVG 1.1//EN" "http://www.w3.org/Graphics/SVG/1.1/DTD/svg11.dtd"><svg width="100%" height="100%" viewBox="0 0 1000 1000" version="1.1" xmlns="http://www.w3.org/2000/svg" xmlns:xlink="http://www.w3.org/1999/xlink" xml:space="preserve" xmlns:serif="http://www.serif.com/" style="fill-rule:evenodd;clip-rule:evenodd;stroke-linecap:round;stroke-linejoin:round;stroke-miterlimit:1.5;"><g id="logo-libo-square"><rect x="0" y="0" width="1000" height="1000" style="fill:#fff;"/><g><circle cx="635.59" cy="460.656" r="47.034" style="fill:#0d1821;"/><circle cx="608.833" cy="428.29" r="29.396" style="fill:#fff;"/><path d="M654.673,337.099c80.208,0 145.327,65.119 145.327,145.327c0,80.208 -65.119,145.327 -145.327,145.327c-80.208,0 -145.327,-65.119 -145.327,-145.327c0,-80.208 65.119,-145.327 145.327,-145.327Zm0,43.753c56.061,0 101.575,45.514 101.575,101.574c0,56.061 -45.514,101.575 -101.575,101.575c-56.06,0 -101.574,-45.514 -101.574,-101.575c0,-56.06 45.514,-101.574 101.574,-101.574Z" style="fill:#0d1821;"/></g><g><circle cx="360.3" cy="463.581" r="47.034" style="fill:#0d1821;"/><circle cx="333.543" cy="431.215" r="29.396" style="fill:#fff;"/><path d="M345.327,337.099c80.208,0 145.327,65.119 145.327,145.327c0,80.208 -65.119,145.327 -145.327,145.327c-80.208,0 -145.327,-65.119 -145.327,-145.327c0,-80.208 65.119,-145.327 145.327,-145.327Zm0,43.753c56.06,0 101.574,45.514 101.574,101.574c0,56.061 -45.514,101.575 -101.574,101.575c-56.061,0 -101.575,-45.514 -101.575,-101.575c0,-56.06 45.514,-101.574 101.575,-101.574Z" style="fill:#0d1821;"/></g><path d="M218.648,148.874l0,333.552" style="fill:none;stroke:#0d1821;stroke-width:37px;"/><path d="M655.711,687.135l0,163.991" style="fill:none;stroke:#0d1821;stroke-width:44px;"/></g></svg>