<?xml version="1.0" encoding="UTF-8" standalone="no"?><!DOCTYPE svg PUBLIC "-//W3C//DTD SVG 1.1//EN" "http://www.w3.org/Graphics/SVG/1.1/DTD/svg11.dtd"><svg width="100%" height="100%" viewBox="0 0 1500 500" version="1.1" xmlns="http://www.w3.org/2000/svg" xmlns:xlink="http://www.w3.org/1999/xlink" xml:space="preserve" xmlns:serif="http://www.serif.com/" style="fill-rule:evenodd;clip-rule:evenodd;stroke-linejoin:round;stroke-miterlimit:1.41421;"><g><path d="M331.187,392.08l60.75,0l0,12.456l-60.525,0l0,-12.456" style="fill:#fff;"/><text x="373.077px" y="404.546px" style="font-family:'StardosStencil-Regular', 'Stardos Stencil';font-size:320px;fill:#fff;">lumibib</text><clipPath id="_clip1"><rect x="82" y="64.9" width="262.167" height="370.293"/></clipPath><g clip-path="url(#_clip1)"><g><path d="M337.804,392.08l-24.91,0l0,-213.17c0,-62.753 -51.256,-114.01 -114.01,-114.01c-64.669,0 -116.884,52.694 -116.884,116.884l0,49.341c0,72.813 45.029,135.087 108.741,160.476l-89.101,0c-3.353,0 -6.227,2.874 -6.227,6.227c0,3.354 2.874,6.228 6.227,6.228l172.453,0c8.622,12.455 18.682,22.035 28.742,29.7c0.958,0.958 2.395,1.437 3.832,1.437c1.916,0 3.832,-0.958 5.269,-2.395c0.958,-0.958 1.437,-2.395 0.958,-3.832c0,-0.479 0,-0.959 0,-1.438l0,-22.993l24.91,0c3.353,0 6.227,-2.874 6.227,-6.228c0,-3.353 -2.874,-6.227 -6.227,-6.227Zm-192.571,-258.199c25.388,0 45.987,21.077 45.987,46.466l0,91.496c-32.096,-15.809 -96.765,-54.131 -96.765,-86.227c-0.479,-28.742 22.515,-51.735 50.778,-51.735Zm57.963,46.466c0,-25.868 20.598,-46.466 45.987,-46.466c28.263,0 50.777,23.472 50.777,51.735c0,32.096 -64.669,70.418 -96.764,86.227l0,-91.496Zm-4.312,-102.513c41.197,0 76.646,24.91 92.454,59.879c-11.018,-10.06 -25.868,-16.287 -42.155,-16.287c-22.515,0 -42.634,13.413 -52.215,32.574c-9.581,-19.161 -29.221,-32.574 -52.215,-32.574c-15.329,0 -29.221,5.269 -40.238,14.371c17.724,-34.49 53.172,-57.963 94.369,-57.963Zm56.047,314.246c-88.621,0 -160.476,-71.855 -160.476,-160.476l0,-14.85c9.581,12.455 23.952,24.909 43.592,38.322c26.826,18.204 53.173,30.179 54.131,30.658c0.958,0.48 1.916,0.48 2.395,0.48l4.79,0c0.958,0 1.916,0 2.395,-0.48c0.959,-0.479 27.305,-12.454 54.131,-30.658c19.641,-13.413 34.491,-26.347 43.592,-38.322l0,13.892c-0.479,0 -0.958,0.479 -1.437,0.958c-30.179,24.43 -48.861,62.753 -48.861,99.639c0,22.993 6.227,43.592 15.808,60.837l-10.06,0Zm25.389,0c-10.539,-16.766 -18.203,-37.365 -18.203,-60.837c0,-36.407 18.682,-66.107 37.843,-84.31l0,165.745l-8.143,-8.143" style="fill:#fff;fill-rule:nonzero;"/><path d="M123.676,203.82c3.353,0 6.227,-2.874 6.227,-6.228c0,-6.706 5.749,-12.455 12.455,-12.455c6.707,0 12.455,5.749 12.455,12.455c0,3.354 2.874,6.228 6.228,6.228c3.353,0 6.227,-2.874 6.227,-6.228c0,-13.892 -11.018,-24.909 -24.91,-24.909c-13.892,0 -24.909,11.017 -24.909,24.909c0,3.354 2.874,6.228 6.227,6.228Z" style="fill:#fff;fill-rule:nonzero;"/><path d="M250.62,170.766c-13.892,0 -24.91,11.018 -24.91,24.91c0,3.353 2.874,6.228 6.228,6.228c3.353,0 6.227,-2.875 6.227,-6.228c0,-6.706 5.748,-12.455 12.455,-12.455c6.706,0 12.455,5.749 12.455,12.455c0,3.353 2.874,6.228 6.227,6.228c3.353,0 6.228,-2.875 6.228,-6.228c0,-13.892 -11.018,-24.91 -24.91,-24.91Z" style="fill:#fff;fill-rule:nonzero;"/></g></g></g></svg>