<?xml version="1.0" encoding="UTF-8" standalone="no"?><!DOCTYPE svg PUBLIC "-//W3C//DTD SVG 1.1//EN" "http://www.w3.org/Graphics/SVG/1.1/DTD/svg11.dtd"><svg width="100%" height="100%" viewBox="0 0 1500 500" version="1.1" xmlns="http://www.w3.org/2000/svg" xmlns:xlink="http://www.w3.org/1999/xlink" xml:space="preserve" xmlns:serif="http://www.serif.com/" style="fill-rule:evenodd;clip-rule:evenodd;stroke-linejoin:round;stroke-miterlimit:1.5;"><g><rect x="0" y="0" width="1500" height="500" style="fill:none;stroke:#fff;stroke-width:1px;"/><g><circle cx="201.071" cy="298.929" r="30" style="fill:#0d1821;"/><path d="M200,150c82.787,0 150,67.213 150,150c0,82.787 -67.213,150 -150,150c-82.787,0 -150,-67.213 -150,-150c0,-82.787 67.213,-150 150,-150Zm0,22.5c70.369,0 127.5,57.131 127.5,127.5c0,70.369 -57.131,127.5 -127.5,127.5c-70.369,0 -127.5,-57.131 -127.5,-127.5c0,-70.369 57.131,-127.5 127.5,-127.5Z" style="fill:#0d1821;"/></g><text x="350px" y="410.25px" style="font-family:'Aileron-Black', 'Aileron';font-weight:900;font-size:300px;fill:#0d1821;">link</text></g></svg>