<?xml version="1.0" encoding="UTF-8" standalone="no"?><!DOCTYPE svg PUBLIC "-//W3C//DTD SVG 1.1//EN" "http://www.w3.org/Graphics/SVG/1.1/DTD/svg11.dtd"><svg width="100%" height="100%" viewBox="0 0 1502 502" version="1.1" xmlns="http://www.w3.org/2000/svg" xmlns:xlink="http://www.w3.org/1999/xlink" xml:space="preserve" xmlns:serif="http://www.serif.com/" style="fill-rule:evenodd;clip-rule:evenodd;stroke-linejoin:round;stroke-miterlimit:1.5;"><g id="logo-libo"><rect x="1" y="1" width="1500" height="500" style="fill:none;stroke:#fff;stroke-width:1px;"/><text x="51px" y="445px" style="font-family:'Ubuntu-Regular', 'Ubuntu', sans-serif;font-size:500px;fill:#0d1821;">lib</text><g id="logo-libo-square"><g><path d="M1023.99,244.734c0.407,-0.011 0.815,-0.017 1.225,-0.017c25.007,0 45.31,20.303 45.31,45.311c0,25.007 -20.303,45.31 -45.31,45.31c-25.008,0 -45.311,-20.303 -45.311,-45.31c0,-3.341 0.363,-6.597 1.05,-9.733c4.962,4.282 11.423,6.872 18.485,6.872c15.629,0 28.319,-12.69 28.319,-28.319c0,-5.138 -1.372,-9.958 -3.768,-14.114Z" style="fill:#0d1821;"/><path d="M1043.6,171c77.269,0 140,62.732 140,140c0,77.268 -62.731,140 -140,140c-77.268,0 -140,-62.732 -140,-140c0,-77.268 62.732,-140 140,-140Zm0,42.149c54.006,0 97.852,43.845 97.852,97.851c0,54.006 -43.846,97.851 -97.852,97.851c-54.005,0 -97.851,-43.845 -97.851,-97.851c0,-54.006 43.846,-97.851 97.851,-97.851Z" style="fill:#0d1821;"/></g><g><path d="M758.789,247.552c0.407,-0.011 0.815,-0.017 1.225,-0.017c25.007,0 45.31,20.303 45.31,45.311c0,25.007 -20.303,45.31 -45.31,45.31c-25.008,0 -45.311,-20.303 -45.311,-45.31c0,-3.341 0.363,-6.597 1.05,-9.733c4.962,4.282 11.423,6.872 18.485,6.872c15.629,0 28.319,-12.689 28.319,-28.319c0,-5.138 -1.372,-9.958 -3.768,-14.114Z" style="fill:#0d1821;"/><path d="M745.589,171c77.268,0 140,62.732 140,140c0,77.268 -62.732,140 -140,140c-77.268,0 -140,-62.732 -140,-140c0,-77.268 62.732,-140 140,-140Zm0,42.149c54.006,0 97.852,43.845 97.852,97.851c0,54.006 -43.846,97.851 -97.852,97.851c-54.005,0 -97.851,-43.845 -97.851,-97.851c0,-54.006 43.846,-97.851 97.851,-97.851Z" style="fill:#0d1821;"/></g></g></g></svg>