<?xml version="1.0" encoding="UTF-8" standalone="no"?><!DOCTYPE svg PUBLIC "-//W3C//DTD SVG 1.1//EN" "http://www.w3.org/Graphics/SVG/1.1/DTD/svg11.dtd"><svg width="100%" height="100%" viewBox="0 0 1000 1000" version="1.1" xmlns="http://www.w3.org/2000/svg" xmlns:xlink="http://www.w3.org/1999/xlink" xml:space="preserve" xmlns:serif="http://www.serif.com/" style="fill-rule:evenodd;clip-rule:evenodd;stroke-linejoin:round;stroke-miterlimit:1.41421;"><g><rect x="0" y="0" width="1000" height="1000" style="fill:none;"/><path d="M451.971,100.277c-58.392,2.963 -111.625,20.537 -163.733,53.998c-41.635,26.719 -83.527,66.464 -114.485,108.713c-43.986,59.924 -67.639,118.674 -73.003,181.255c-0.868,10.472 -1.021,34.177 -0.255,41.635c2.452,23.449 9.247,43.322 20.486,60.129c27.535,41.278 75.454,63.45 146.567,67.69c12.669,0.766 38.673,0.613 50.882,-0.255c55.072,-4.036 104.268,-18.698 154.742,-46.132c24.419,-13.282 50.933,-32.337 71.112,-51.24c15.888,-14.866 33.922,-35.454 41.84,-47.817c2.861,-4.393 10.933,-14.661 18.851,-23.908c17.574,-20.588 44.241,-45.518 58.392,-54.612c6.13,-3.933 8.94,-4.138 9.553,-0.664c0.562,2.912 -0.715,6.539 -5.568,15.939c-2.606,5.109 -9.298,18.545 -14.867,29.886c-5.568,11.392 -15.683,32.082 -22.529,46.029c-22.273,45.467 -31.469,67.741 -34.943,84.701c-2.912,14.458 0.613,21.814 11.852,24.675c3.678,0.92 5.16,1.022 11.392,0.767c14.356,-0.613 26.157,-3.628 40.359,-10.167c20.332,-9.4 38.672,-22.989 60.793,-45.109c20.383,-20.281 39.183,-42.453 64.318,-75.762c3.882,-5.108 7.152,-9.246 7.254,-9.144c0.102,0.102 -3.116,9.706 -7.152,21.354c-16.092,46.387 -31.878,88.073 -42.351,111.829c-33.512,76.017 -74.024,144.217 -111.266,187.232c-27.587,31.878 -60.231,57.268 -97.269,75.608c-26.616,13.181 -51.802,19.158 -81.228,19.311c-14.1,0.051 -24.93,-1.533 -34.841,-5.211c-27.587,-10.166 -45.773,-29.937 -51.138,-55.531c-2.554,-12.005 -2.912,-19.362 -1.685,-33.921c0.664,-7.766 0.766,-11.699 0.459,-12.159c-1.226,-1.482 -6.641,0 -8.94,2.503c-2.452,2.657 -2.707,4.649 -2.707,20.384c0,15.53 0.459,22.478 2.043,31.163c5.62,30.243 20.894,52.261 47.255,68.047c14.407,8.633 33.104,14.815 52.926,17.574c7.816,1.072 28.149,1.226 36.476,0.306c48.634,-5.619 92.364,-29.068 134.102,-71.93c30.55,-31.418 53.13,-61.508 72.134,-96.247c18.085,-33.002 30.652,-60.333 61.1,-132.825c43.577,-103.655 81.943,-188.969 97.064,-215.585c4.394,-7.817 6.693,-11.086 10.473,-15.122c6.539,-7.05 13.589,-10.473 23.04,-11.188c8.225,-0.664 10.524,-2.043 10.524,-6.386c0,-2.963 -1.328,-4.853 -3.985,-5.619c-4.853,-1.329 -18.595,0.051 -26.309,2.605c-5.875,1.992 -12.874,5.16 -29.784,13.538c-15.735,7.714 -15.019,7.152 -22.733,17.931c-6.029,8.481 -12.517,18.749 -27.638,43.833c-18.8,31.214 -26.054,42.197 -39.643,59.771c-18.749,24.215 -41.125,47.408 -62.377,64.573c-10.32,8.328 -18.851,13.845 -25.799,16.604c-9.4,3.78 -16.552,2.401 -19.719,-3.781c-1.329,-2.605 -2.197,-8.327 -1.788,-11.75c1.43,-11.699 9.808,-32.031 28.659,-69.478c20.128,-40 35.71,-68.149 48.788,-88.022c5.773,-8.736 11.852,-20.537 13.078,-25.39c1.022,-4.036 1.124,-9.757 0.204,-12.465c-0.868,-2.503 -3.729,-5.722 -6.283,-6.999c-3.832,-1.941 -8.327,-2.656 -15.224,-2.299c-8.072,0.409 -13.129,1.278 -20.128,3.576c-15.939,5.262 -25.186,12.414 -45.723,35.301c-25.543,28.507 -35.249,40.052 -54.202,64.625c-19.72,25.492 -40.614,46.795 -62.888,64.216c-31.214,24.419 -67.179,44.036 -108.763,59.362c-37.6,13.896 -78.01,20.997 -119.747,20.997c-21.508,0 -45.212,-2.503 -60.845,-6.437c-11.29,-2.81 -26.36,-9.502 -35.76,-15.837c-21.354,-14.355 -34.126,-31.367 -41.942,-55.889c-7.408,-23.448 -9.145,-55.582 -4.547,-86.336c5.722,-38.57 26.105,-89.402 54.509,-135.992c29.324,-48.175 68.814,-92.416 107.946,-121.076c45.008,-32.899 88.431,-50.78 134.358,-55.275c28.2,-2.759 47.97,-0.665 64.829,6.896c5.568,2.555 9.145,4.905 13.947,9.349c6.488,6.028 10.421,12.261 13.333,21.252c4.036,12.312 5.262,21.508 5.262,38.111c0,19.617 -3.218,33.921 -11.086,49.503l-3.78,7.612l1.022,1.021c1.379,1.38 5.313,1.329 9.298,-0.204c4.138,-1.533 5.21,-2.605 6.947,-6.743c4.292,-10.32 9.247,-19.618 19.669,-37.192c11.29,-19.004 16.603,-31.418 17.114,-39.898c0.408,-7.714 -1.839,-16.143 -6.284,-23.04c-3.27,-5.058 -11.188,-12.772 -17.114,-16.706c-18.442,-12.158 -47.102,-21.098 -75.608,-23.55c-8.481,-0.716 -28.098,-1.022 -37.293,-0.511Z" style="fill:#002c73;fill-rule:nonzero;"/></g></svg>