<?xml version="1.0" encoding="UTF-8" standalone="no"?>
<!DOCTYPE svg PUBLIC "-//W3C//DTD SVG 1.1//EN" "http://www.w3.org/Graphics/SVG/1.1/DTD/svg11.dtd">
<svg width="100%" height="100%" viewBox="0 0 1500 1500" version="1.1" xmlns="http://www.w3.org/2000/svg" xmlns:xlink="http://www.w3.org/1999/xlink" xml:space="preserve" xmlns:serif="http://www.serif.com/" style="fill-rule:evenodd;clip-rule:evenodd;stroke-linejoin:round;stroke-miterlimit:1.41421;">
    <g transform="matrix(1,0,0,1,-1500,0)">
        <g transform="matrix(1.23024,0,0,1.38586,-11.542,-16.8902)">
            <g>
                <rect x="9.382" y="12.187" width="1219.28" height="1082.36" style="fill:rgb(235,235,235);"/>
            </g>
        </g>
        <g>
            <g transform="matrix(1.23024,0,0,1.38586,1488.46,-16.8902)">
                <rect x="9.382" y="12.187" width="1219.28" height="1082.36" style="fill:none;"/>
            </g>
            <g transform="matrix(12,0,0,12,2250,750)">
                <g transform="matrix(1,0,0,1,-50,-50)">
                    <clipPath id="_clip1">
                        <rect x="0" y="0" width="100" height="100"/>
                    </clipPath>
                    <g clip-path="url(#_clip1)">
                        <g transform="matrix(1,0,0,1,0,-12.5)">
                            <g transform="matrix(1.29366,0,0,1.29366,-14.7477,-2.11837)">
                                <path d="M76.1,79.6L70.9,79.6L70.9,35.1C70.9,22 60.2,11.3 47.1,11.3C33.6,11.3 22.7,22.3 22.7,35.7L22.7,46C22.7,61.2 32.1,74.2 45.4,79.5L26.8,79.5C26.1,79.5 25.5,80.1 25.5,80.8C25.5,81.5 26.1,82.1 26.8,82.1L62.8,82.1C64.6,84.7 66.7,86.7 68.8,88.3C69,88.5 69.3,88.6 69.6,88.6C70,88.6 70.4,88.4 70.7,88.1C70.9,87.9 71,87.6 70.9,87.3C70.9,87.2 70.9,87.1 70.9,87L70.9,82.2L76.1,82.2C76.8,82.2 77.4,81.6 77.4,80.9C77.4,80.2 76.8,79.6 76.1,79.6ZM35.9,25.7C41.2,25.7 45.5,30.1 45.5,35.4L45.5,54.5C38.8,51.2 25.3,43.2 25.3,36.5C25.2,30.5 30,25.7 35.9,25.7ZM48,35.4C48,30 52.3,25.7 57.6,25.7C63.5,25.7 68.2,30.6 68.2,36.5C68.2,43.2 54.7,51.2 48,54.5L48,35.4ZM47.1,14C55.7,14 63.1,19.2 66.4,26.5C64.1,24.4 61,23.1 57.6,23.1C52.9,23.1 48.7,25.9 46.7,29.9C44.7,25.9 40.6,23.1 35.8,23.1C32.6,23.1 29.7,24.2 27.4,26.1C31.1,18.9 38.5,14 47.1,14ZM58.8,79.6C40.3,79.6 25.3,64.6 25.3,46.1L25.3,43C27.3,45.6 30.3,48.2 34.4,51C40,54.8 45.5,57.3 45.7,57.4C45.9,57.5 46.1,57.5 46.2,57.5L47.2,57.5C47.4,57.5 47.6,57.5 47.7,57.4C47.9,57.3 53.4,54.8 59,51C63.1,48.2 66.2,45.5 68.1,43L68.1,45.9C68,45.9 67.9,46 67.8,46.1C61.5,51.2 57.6,59.2 57.6,66.9C57.6,71.7 58.9,76 60.9,79.6L58.8,79.6ZM64.1,79.6C61.9,76.1 60.3,71.8 60.3,66.9C60.3,59.3 64.2,53.1 68.2,49.3L68.2,83.9L66.5,82.2" style="fill:rgb(0,44,115);fill-rule:nonzero;"/>
                            </g>
                            <g transform="matrix(1.29366,0,0,1.29366,-14.7477,-2.11837)">
                                <path d="M31.4,40.3C32.1,40.3 32.7,39.7 32.7,39C32.7,37.6 33.9,36.4 35.3,36.4C36.7,36.4 37.9,37.6 37.9,39C37.9,39.7 38.5,40.3 39.2,40.3C39.9,40.3 40.5,39.7 40.5,39C40.5,36.1 38.2,33.8 35.3,33.8C32.4,33.8 30.1,36.1 30.1,39C30.1,39.7 30.7,40.3 31.4,40.3Z" style="fill:rgb(0,44,115);fill-rule:nonzero;"/>
                            </g>
                            <g transform="matrix(1.29366,0,0,1.29366,-14.7477,-2.11837)">
                                <path d="M57.9,33.4C55,33.4 52.7,35.7 52.7,38.6C52.7,39.3 53.3,39.9 54,39.9C54.7,39.9 55.3,39.3 55.3,38.6C55.3,37.2 56.5,36 57.9,36C59.3,36 60.5,37.2 60.5,38.6C60.5,39.3 61.1,39.9 61.8,39.9C62.5,39.9 63.1,39.3 63.1,38.6C63.1,35.7 60.8,33.4 57.9,33.4Z" style="fill:rgb(0,44,115);fill-rule:nonzero;"/>
                            </g>
                        </g>
                    </g>
                </g>
            </g>
        </g>
        <g transform="matrix(1,0,0,1,1500,1500)">
            <g transform="matrix(1.23024,0,0,1.38586,-11.542,-16.8902)">
                <rect x="9.382" y="12.187" width="1219.28" height="1082.36" style="fill:rgb(255,208,9);"/>
            </g>
        </g>
        <g transform="matrix(1,0,0,1,-2.27374e-13,1500)">
            <g transform="matrix(1.23024,0,0,1.38586,-11.542,-16.8902)">
                <rect x="9.382" y="12.187" width="1219.28" height="1082.36" style="fill:rgb(0,44,115);"/>
            </g>
        </g>
    </g>
</svg>
