<svg version="1" xmlns="http://www.w3.org/2000/svg" width="933.333" height="933.333" viewBox="0 0 700.000000 700.000000"><path d="M309 71.1c-37.9 4.3-72.9 20.6-101.7 47.3-24.9 23.1-44.3 57.6-51.3 90.8-3.8 18.4-4.2 26.3-3.7 83.8.4 61.8.8 65.6 8.1 94.1 4.7 18.3 9.2 30.2 18.6 49.4 22.2 45.4 57.2 83.3 100.6 109.3 10.2 6.1 18.3 10.2 33.4 16.9 1.9.9-14.4 1.2-65.3 1.2-73.6.1-72 0-74.5 5.6-1.5 3.3-1.5 4.7 0 8 2.6 5.8-4.7 5.5 138 5.5h131.3l4.9 6.6c9.2 12.4 32.6 35.2 40.3 39.3 3.5 1.8 6.9 1.3 10.2-1.5l3.1-2.6V584h19.1c15.2 0 19.8-.3 22.4-1.5 6-2.9 7.3-9.9 2.6-14.6l-2.9-2.9H501V399.2c0-104.2-.4-169-1-174.7-4.7-42.4-23.5-79.5-54.7-108.4-36.8-34.2-86.7-50.6-136.3-45zm53 22.2c40.3 9.7 73.2 32.7 95.2 66.7 6.5 10 11.5 19.5 9.6 18.4-.7-.4-3.1-2.2-5.3-4-9.3-7.5-26.8-15.1-40.1-17.4-4.5-.8-12-1.1-20.5-.8-11.7.4-14.6.9-22.9 3.7-15.5 5.3-26.2 12.3-38.1 24.8-3.6 3.8-8.2 9.7-10.3 13.1-2.1 3.4-3.9 6.2-4.1 6.2-.2 0-1.7-2.4-3.3-5.4-11-19.4-32.9-35.4-55.6-40.6-8.3-2-11.5-2.2-23.9-1.7-20.2.7-34.1 5.1-49.9 15.8-3.2 2.2-5.8 3.6-5.8 3.3 0-1.5 9.8-16.6 15.5-23.9 24.7-31.5 59.3-52.4 98.1-59.5 16.2-2.9 46.5-2.3 61.4 1.3zm-97.3 83.3c22.7 5.9 41.1 23.5 49.1 46.9l2.7 8 .3 75.8.3 75.8-6.3-3.2c-19.6-9.9-47.1-26.2-66.6-39.6-40.6-27.9-65.2-54.2-71.7-76.8-2.7-9.2-1.7-25.3 2.2-36.8 13.1-37.7 52.7-59.8 90-50.1zm149.9-1.5c31.4 4.4 56.5 27.2 64.5 58.8 2.9 11.4 2.4 27-1.1 35.1-9.6 22.3-36.8 49.3-76.5 75.7-18 11.9-43.1 26.6-61.3 35.7l-5.3 2.7.3-75.3c.3-67.8.5-75.9 2.1-81.3 7.8-27.1 30.5-47.5 57.2-51.4 8.6-1.2 11.4-1.2 20.1 0zm63.2 147.7c-37.8 30.9-64.2 77.8-71.4 126.4-2 13.7-1.5 42.4 1 55.9 3.4 18 9.9 37.6 17.6 53 1.7 3.2 3 6.2 3 6.5 0 1.1-36.6-.4-47.5-2-52.5-7.7-98.2-30-135.9-66.6-37.7-36.6-61.3-81.3-70.6-134.1-1.7-9.7-2.3-17.8-2.7-36.9l-.6-24.5 11.9 12.4c27.6 28.8 68.6 57.1 121.4 83.8 22.1 11.2 21.5 11.2 43.8-.2 54.6-27.7 103.2-61.9 125.9-88.5l6.8-8 .3 10 .3 10.1-3.3 2.7zm3.2 147.9v124.7l-3.1-3c-1.7-1.6-8.7-8.8-15.4-16.1-11.7-12.6-12.6-13.8-19.4-27.5-11.2-22.8-16.1-39.8-18.2-63.5-1.8-21 .9-42.6 8.1-64.5 4.2-13 15.7-35.5 23.7-46.7 6.2-8.6 22.7-28.1 23.8-28.1.3 0 .5 56.1.5 124.7z"/><path d="M231.8 234.9c-10.4 3.4-17.4 9.4-22.1 18.8-2.9 5.7-3.7 9.1-3.9 15.8 0 4.3.3 5.2 3.1 7.7 4.2 3.8 8.3 3.7 12.2-.1 1.6-1.6 2.9-4 2.9-5.3 0-10.5 9-19.8 19-19.8 10.4 0 17.3 7.1 19.5 20.2 1.1 6.6 7.3 9.5 13.4 6.3 3.9-1.9 5.5-6.3 4.6-12.2-1.9-13-9.6-23.8-21-29.4-8.3-4-19.2-4.9-27.7-2zM397.4 231.3c-14.8 3.8-25.9 16.6-28 32.5-1 8.1 2.7 13.2 9.6 13.2 4.3 0 9-4.7 9-9 0-6.7 4.5-13.7 11.2-17.1 11-5.6 24.7 2.4 26.4 15.5 1.2 8.4 7 12.6 13.7 9.5 3.5-1.6 5-4.7 4.8-10.5-.3-14-10.7-28.2-24.1-32.9-6.2-2.2-16.5-2.7-22.6-1.2z"/></svg>